<svg width="434" height="140" xmlns="http://www.w3.org/2000/svg" xmlns:xlink="http://www.w3.org/1999/xlink" xml:space="preserve" overflow="hidden"><defs><clipPath id="clip0"><rect x="162" y="128" width="434" height="140"/></clipPath><clipPath id="clip1"><rect x="163" y="128" width="432" height="140"/></clipPath><clipPath id="clip2"><rect x="163" y="128" width="432" height="140"/></clipPath><clipPath id="clip3"><rect x="163" y="128" width="432" height="140"/></clipPath></defs><g clip-path="url(#clip0)" transform="translate(-162 -128)"><g clip-path="url(#clip1)"><g clip-path="url(#clip2)"><g clip-path="url(#clip3)"><path d="M-230.024-28.7943-215.792-28.7943C-211.953-28.7943-208.842-25.6825-208.842-21.844L-208.842-7.94326C-208.842-4.10469-211.953-0.992908-215.792-0.992908L-230.024-0.992908C-233.862-0.992908-236.974-4.10469-236.974-7.94326L-236.974-21.844C-236.974-25.6825-233.862-28.7943-230.024-28.7943Z" stroke="#808080" stroke-width="0.992908" stroke-linecap="round" stroke-linejoin="round" stroke-miterlimit="4" stroke-opacity="1" fill="none" fill-rule="nonzero" transform="matrix(1.00714 0 0 1 430.5 212.894)"/><text fill="#000000" fill-opacity="1" font-family="Helvetica Neue,Helvetica Neue_MSFontService,sans-serif" font-style="normal" font-variant="normal" font-weight="400" font-stretch="normal" font-size="14" text-anchor="start" direction="ltr" writing-mode="lr-tb" unicode-bidi="normal" text-decoration="none" transform="matrix(0.999848 0.0173286 -0.0174524 0.992757 198.133 203)">14</text><path d="M-117.494-28.7943-103.262-28.7943C-99.4238-28.7943-96.3121-25.6825-96.3121-21.844L-96.3121-7.94326C-96.3121-4.10469-99.4238-0.992908-103.262-0.992908L-117.494-0.992908C-121.333-0.992908-124.444-4.10469-124.444-7.94326L-124.444-21.844C-124.444-25.6825-121.333-28.7943-117.494-28.7943Z" stroke="#808080" stroke-width="0.992908" stroke-linecap="round" stroke-linejoin="round" stroke-miterlimit="4" stroke-opacity="1" fill="none" fill-rule="nonzero" transform="matrix(1.00714 0 0 1 430.5 212.894)"/><text fill="#000000" fill-opacity="1" font-family="Helvetica Neue,Helvetica Neue_MSFontService,sans-serif" font-style="normal" font-variant="normal" font-weight="400" font-stretch="normal" font-size="14" text-anchor="start" direction="ltr" writing-mode="lr-tb" unicode-bidi="normal" text-decoration="none" transform="matrix(0.999848 0.0173286 -0.0174524 0.992757 311.467 203)">18</text><path d="M-173.759 26.8085-159.527 26.8085C-155.689 26.8085-152.577 29.9203-152.577 33.7589L-152.577 47.6596C-152.577 51.4981-155.689 54.6099-159.527 54.6099L-173.759 54.6099C-177.597 54.6099-180.709 51.4981-180.709 47.6596L-180.709 33.7589C-180.709 29.9203-177.597 26.8085-173.759 26.8085Z" stroke="#808080" stroke-width="0.992908" stroke-linecap="round" stroke-linejoin="round" stroke-miterlimit="4" stroke-opacity="1" fill="none" fill-rule="nonzero" transform="matrix(1.00714 0 0 1 430.5 212.894)"/><text fill="#000000" fill-opacity="1" font-family="Helvetica Neue,Helvetica Neue_MSFontService,sans-serif" font-style="normal" font-variant="normal" font-weight="400" font-stretch="normal" font-size="14" text-anchor="start" direction="ltr" writing-mode="lr-tb" unicode-bidi="normal" text-decoration="none" transform="matrix(0.999848 0.0173286 -0.0174524 0.992757 254.8 258)">28</text><path d="M-145.626-28.7943-131.395-28.7943C-127.556-28.7943-124.444-25.6825-124.444-21.844L-124.444-7.94326C-124.444-4.10469-127.556-0.992908-131.395-0.992908L-145.626-0.992908C-149.465-0.992908-152.577-4.10469-152.577-7.94326L-152.577-21.844C-152.577-25.6825-149.465-28.7943-145.626-28.7943Z" stroke="#808080" stroke-width="0.992908" stroke-linecap="round" stroke-linejoin="round" stroke-miterlimit="4" stroke-opacity="1" fill="none" fill-rule="nonzero" transform="matrix(1.00714 0 0 1 430.5 212.894)"/><text fill="#000000" fill-opacity="1" font-family="Helvetica Neue,Helvetica Neue_MSFontService,sans-serif" font-style="normal" font-variant="normal" font-weight="400" font-stretch="normal" font-size="14" text-anchor="start" direction="ltr" writing-mode="lr-tb" unicode-bidi="normal" text-decoration="none" transform="matrix(0.999848 0.0173286 -0.0174524 0.992757 283.133 203)">17</text><path d="M-201.891-0.992908-187.66-0.992908C-183.821-0.992908-180.709 2.11887-180.709 5.95745L-180.709 19.8582C-180.709 23.6967-183.821 26.8085-187.66 26.8085L-201.891 26.8085C-205.73 26.8085-208.842 23.6967-208.842 19.8582L-208.842 5.95745C-208.842 2.11887-205.73-0.992908-201.891-0.992908Z" stroke="#808080" stroke-width="0.992908" stroke-linecap="round" stroke-linejoin="round" stroke-miterlimit="4" stroke-opacity="1" fill="none" fill-rule="nonzero" transform="matrix(1.00714 0 0 1 430.5 212.894)"/><text fill="#000000" fill-opacity="1" font-family="Helvetica Neue,Helvetica Neue_MSFontService,sans-serif" font-style="normal" font-variant="normal" font-weight="400" font-stretch="normal" font-size="14" text-anchor="start" direction="ltr" writing-mode="lr-tb" unicode-bidi="normal" text-decoration="none" transform="matrix(0.999848 0.0173286 -0.0174524 0.992757 226.467 230)">21</text><path d="M-258.156 26.8085-243.924 26.8085C-240.086 26.8085-236.974 29.9203-236.974 33.7589L-236.974 47.6596C-236.974 51.4981-240.086 54.6099-243.924 54.6099L-258.156 54.6099C-261.995 54.6099-265.106 51.4981-265.106 47.6596L-265.106 33.7589C-265.106 29.9203-261.995 26.8085-258.156 26.8085Z" stroke="#808080" stroke-width="0.992908" stroke-linecap="round" stroke-linejoin="round" stroke-miterlimit="4" stroke-opacity="1" fill="none" fill-rule="nonzero" transform="matrix(1.00714 0 0 1 430.5 212.894)"/><text fill="#000000" fill-opacity="1" font-family="Helvetica Neue,Helvetica Neue_MSFontService,sans-serif" font-style="normal" font-variant="normal" font-weight="400" font-stretch="normal" font-size="14" text-anchor="start" direction="ltr" writing-mode="lr-tb" unicode-bidi="normal" text-decoration="none" transform="matrix(0.999848 0.0173286 -0.0174524 0.992757 169.8 258)">25</text><path d="M-173.759-0.992908-159.527-0.992908C-155.689-0.992908-152.577 2.11887-152.577 5.95745L-152.577 19.8582C-152.577 23.6967-155.689 26.8085-159.527 26.8085L-173.759 26.8085C-177.597 26.8085-180.709 23.6967-180.709 19.8582L-180.709 5.95745C-180.709 2.11887-177.597-0.992908-173.759-0.992908Z" stroke="#808080" stroke-width="0.992908" stroke-linecap="round" stroke-linejoin="round" stroke-miterlimit="4" stroke-opacity="1" fill="none" fill-rule="nonzero" transform="matrix(1.00714 0 0 1 430.5 212.894)"/><text fill="#000000" fill-opacity="1" font-family="Helvetica Neue,Helvetica Neue_MSFontService,sans-serif" font-style="normal" font-variant="normal" font-weight="400" font-stretch="normal" font-size="14" text-anchor="start" direction="ltr" writing-mode="lr-tb" unicode-bidi="normal" text-decoration="none" transform="matrix(0.999848 0.0173286 -0.0174524 0.992757 254.8 230)">22</text><path d="M-230.024-56.5957-215.792-56.5957C-211.953-56.5957-208.842-53.484-208.842-49.6454L-208.842-35.7447C-208.842-31.9061-211.953-28.7943-215.792-28.7943L-230.024-28.7943C-233.862-28.7943-236.974-31.9061-236.974-35.7447L-236.974-49.6454C-236.974-53.484-233.862-56.5957-230.024-56.5957Z" stroke="#808080" stroke-width="0.992908" stroke-linecap="round" stroke-linejoin="round" stroke-miterlimit="4" stroke-opacity="1" fill="none" fill-rule="nonzero" transform="matrix(1.00714 0 0 1 430.5 212.894)"/><text fill="#000000" fill-opacity="1" font-family="Helvetica Neue,Helvetica Neue_MSFontService,sans-serif" font-style="normal" font-variant="normal" font-weight="400" font-stretch="normal" font-size="14" text-anchor="start" direction="ltr" writing-mode="lr-tb" unicode-bidi="normal" text-decoration="none" transform="matrix(0.999848 0.0173286 -0.0174524 0.992757 202.025 175)">8</text><path d="M-117.494-84.3972-103.262-84.3972C-99.4238-84.3972-96.3121-81.2854-96.3121-77.4468L-96.3121-63.5461C-96.3121-59.7075-99.4238-56.5957-103.262-56.5957L-117.494-56.5957C-121.333-56.5957-124.444-59.7075-124.444-63.5461L-124.444-77.4468C-124.444-81.2854-121.333-84.3972-117.494-84.3972Z" stroke="#808080" stroke-width="0.992908" stroke-linecap="round" stroke-linejoin="round" stroke-miterlimit="4" stroke-opacity="1" fill="none" fill-rule="nonzero" transform="matrix(1.00714 0 0 1 430.5 212.894)"/><text fill="#000000" fill-opacity="1" font-family="Helvetica Neue,Helvetica Neue_MSFontService,sans-serif" font-style="normal" font-variant="normal" font-weight="400" font-stretch="normal" font-size="14" text-anchor="start" direction="ltr" writing-mode="lr-tb" unicode-bidi="normal" text-decoration="none" transform="matrix(0.999848 0.0173286 -0.0174524 0.992757 315.358 147)">6</text><path d="M-117.494 26.8085-103.262 26.8085C-99.4238 26.8085-96.3121 29.9203-96.3121 33.7589L-96.3121 47.6596C-96.3121 51.4981-99.4238 54.6099-103.262 54.6099L-117.494 54.6099C-121.333 54.6099-124.444 51.4981-124.444 47.6596L-124.444 33.7589C-124.444 29.9203-121.333 26.8085-117.494 26.8085Z" stroke="#808080" stroke-width="0.992908" stroke-linecap="round" stroke-linejoin="round" stroke-miterlimit="4" stroke-opacity="1" fill="none" fill-rule="nonzero" transform="matrix(1.00714 0 0 1 430.5 212.894)"/><text fill="#000000" fill-opacity="1" font-family="Helvetica Neue,Helvetica Neue_MSFontService,sans-serif" font-style="normal" font-variant="normal" font-weight="400" font-stretch="normal" font-size="14" text-anchor="start" direction="ltr" writing-mode="lr-tb" unicode-bidi="normal" text-decoration="none" transform="matrix(0.999848 0.0173286 -0.0174524 0.992757 311.467 258)">30</text><path d="M-258.156-84.3972-243.924-84.3972C-240.086-84.3972-236.974-81.2854-236.974-77.4468L-236.974-63.5461C-236.974-59.7075-240.086-56.5957-243.924-56.5957L-258.156-56.5957C-261.995-56.5957-265.106-59.7075-265.106-63.5461L-265.106-77.4468C-265.106-81.2854-261.995-84.3972-258.156-84.3972Z" stroke="#808080" stroke-width="0.992908" stroke-linecap="round" stroke-linejoin="round" stroke-miterlimit="4" stroke-opacity="1" fill="none" fill-rule="nonzero" transform="matrix(1.00714 0 0 1 430.5 212.894)"/><text fill="#000000" fill-opacity="1" font-family="Helvetica Neue,Helvetica Neue_MSFontService,sans-serif" font-style="normal" font-variant="normal" font-weight="400" font-stretch="normal" font-size="14" text-anchor="start" direction="ltr" writing-mode="lr-tb" unicode-bidi="normal" text-decoration="none" transform="matrix(0.999848 0.0173286 -0.0174524 0.992757 173.691 147)">1</text><path d="M-145.626-0.992908-131.395-0.992908C-127.556-0.992908-124.444 2.11887-124.444 5.95745L-124.444 19.8582C-124.444 23.6967-127.556 26.8085-131.395 26.8085L-145.626 26.8085C-149.465 26.8085-152.577 23.6967-152.577 19.8582L-152.577 5.95745C-152.577 2.11887-149.465-0.992908-145.626-0.992908Z" stroke="#808080" stroke-width="0.992908" stroke-linecap="round" stroke-linejoin="round" stroke-miterlimit="4" stroke-opacity="1" fill="none" fill-rule="nonzero" transform="matrix(1.00714 0 0 1 430.5 212.894)"/><text fill="#000000" fill-opacity="1" font-family="Helvetica Neue,Helvetica Neue_MSFontService,sans-serif" font-style="normal" font-variant="normal" font-weight="400" font-stretch="normal" font-size="14" text-anchor="start" direction="ltr" writing-mode="lr-tb" unicode-bidi="normal" text-decoration="none" transform="matrix(0.999848 0.0173286 -0.0174524 0.992757 283.133 230)">23</text><path d="M-201.891 26.8085-187.66 26.8085C-183.821 26.8085-180.709 29.9203-180.709 33.7589L-180.709 47.6596C-180.709 51.4981-183.821 54.6099-187.66 54.6099L-201.891 54.6099C-205.73 54.6099-208.842 51.4981-208.842 47.6596L-208.842 33.7589C-208.842 29.9203-205.73 26.8085-201.891 26.8085Z" stroke="#808080" stroke-width="0.992908" stroke-linecap="round" stroke-linejoin="round" stroke-miterlimit="4" stroke-opacity="1" fill="none" fill-rule="nonzero" transform="matrix(1.00714 0 0 1 430.5 212.894)"/><text fill="#000000" fill-opacity="1" font-family="Helvetica Neue,Helvetica Neue_MSFontService,sans-serif" font-style="normal" font-variant="normal" font-weight="400" font-stretch="normal" font-size="14" text-anchor="start" direction="ltr" writing-mode="lr-tb" unicode-bidi="normal" text-decoration="none" transform="matrix(0.999848 0.0173286 -0.0174524 0.992757 226.467 258)">27</text><path d="M-201.891-84.3972-187.66-84.3972C-183.821-84.3972-180.709-81.2854-180.709-77.4468L-180.709-63.5461C-180.709-59.7075-183.821-56.5957-187.66-56.5957L-201.891-56.5957C-205.73-56.5957-208.842-59.7075-208.842-63.5461L-208.842-77.4468C-208.842-81.2854-205.73-84.3972-201.891-84.3972Z" stroke="#808080" stroke-width="0.992908" stroke-linecap="round" stroke-linejoin="round" stroke-miterlimit="4" stroke-opacity="1" fill="none" fill-rule="nonzero" transform="matrix(1.00714 0 0 1 430.5 212.894)"/><text fill="#000000" fill-opacity="1" font-family="Helvetica Neue,Helvetica Neue_MSFontService,sans-serif" font-style="normal" font-variant="normal" font-weight="400" font-stretch="normal" font-size="14" text-anchor="start" direction="ltr" writing-mode="lr-tb" unicode-bidi="normal" text-decoration="none" transform="matrix(0.999848 0.0173286 -0.0174524 0.992757 230.358 147)">3</text><path d="M-230.024-84.3972-215.792-84.3972C-211.953-84.3972-208.842-81.2854-208.842-77.4468L-208.842-63.5461C-208.842-59.7075-211.953-56.5957-215.792-56.5957L-230.024-56.5957C-233.862-56.5957-236.974-59.7075-236.974-63.5461L-236.974-77.4468C-236.974-81.2854-233.862-84.3972-230.024-84.3972Z" stroke="#808080" stroke-width="0.992908" stroke-linecap="round" stroke-linejoin="round" stroke-miterlimit="4" stroke-opacity="1" fill="none" fill-rule="nonzero" transform="matrix(1.00714 0 0 1 430.5 212.894)"/><text fill="#000000" fill-opacity="1" font-family="Helvetica Neue,Helvetica Neue_MSFontService,sans-serif" font-style="normal" font-variant="normal" font-weight="400" font-stretch="normal" font-size="14" text-anchor="start" direction="ltr" writing-mode="lr-tb" unicode-bidi="normal" text-decoration="none" transform="matrix(0.999848 0.0173286 -0.0174524 0.992757 202.025 147)">2</text><path d="M-258.156-0.992908-243.924-0.992908C-240.086-0.992908-236.974 2.11887-236.974 5.95745L-236.974 19.8582C-236.974 23.6967-240.086 26.8085-243.924 26.8085L-258.156 26.8085C-261.995 26.8085-265.106 23.6967-265.106 19.8582L-265.106 5.95745C-265.106 2.11887-261.995-0.992908-258.156-0.992908Z" stroke="#808080" stroke-width="0.992908" stroke-linecap="round" stroke-linejoin="round" stroke-miterlimit="4" stroke-opacity="1" fill="none" fill-rule="nonzero" transform="matrix(1.00714 0 0 1 430.5 212.894)"/><text fill="#000000" fill-opacity="1" font-family="Helvetica Neue,Helvetica Neue_MSFontService,sans-serif" font-style="normal" font-variant="normal" font-weight="400" font-stretch="normal" font-size="14" text-anchor="start" direction="ltr" writing-mode="lr-tb" unicode-bidi="normal" text-decoration="none" transform="matrix(0.999848 0.0173286 -0.0174524 0.992757 169.8 230)">19</text><path d="M-145.626-56.5957-131.395-56.5957C-127.556-56.5957-124.444-53.484-124.444-49.6454L-124.444-35.7447C-124.444-31.9061-127.556-28.7943-131.395-28.7943L-145.626-28.7943C-149.465-28.7943-152.577-31.9061-152.577-35.7447L-152.577-49.6454C-152.577-53.484-149.465-56.5957-145.626-56.5957Z" stroke="#808080" stroke-width="0.992908" stroke-linecap="round" stroke-linejoin="round" stroke-miterlimit="4" stroke-opacity="1" fill="none" fill-rule="nonzero" transform="matrix(1.00714 0 0 1 430.5 212.894)"/><text fill="#000000" fill-opacity="1" font-family="Helvetica Neue,Helvetica Neue_MSFontService,sans-serif" font-style="normal" font-variant="normal" font-weight="400" font-stretch="normal" font-size="14" text-anchor="start" direction="ltr" writing-mode="lr-tb" unicode-bidi="normal" text-decoration="none" transform="matrix(0.999848 0.0173286 -0.0174524 0.992757 283.133 175)">11</text><path d="M-258.156-56.5957-243.924-56.5957C-240.086-56.5957-236.974-53.484-236.974-49.6454L-236.974-35.7447C-236.974-31.9061-240.086-28.7943-243.924-28.7943L-258.156-28.7943C-261.995-28.7943-265.106-31.9061-265.106-35.7447L-265.106-49.6454C-265.106-53.484-261.995-56.5957-258.156-56.5957Z" stroke="#808080" stroke-width="0.992908" stroke-linecap="round" stroke-linejoin="round" stroke-miterlimit="4" stroke-opacity="1" fill="none" fill-rule="nonzero" transform="matrix(1.00714 0 0 1 430.5 212.894)"/><text fill="#000000" fill-opacity="1" font-family="Helvetica Neue,Helvetica Neue_MSFontService,sans-serif" font-style="normal" font-variant="normal" font-weight="400" font-stretch="normal" font-size="14" text-anchor="start" direction="ltr" writing-mode="lr-tb" unicode-bidi="normal" text-decoration="none" transform="matrix(0.999848 0.0173286 -0.0174524 0.992757 173.691 175)">7</text><path d="M-230.024 26.8085-215.792 26.8085C-211.953 26.8085-208.842 29.9203-208.842 33.7589L-208.842 47.6596C-208.842 51.4981-211.953 54.6099-215.792 54.6099L-230.024 54.6099C-233.862 54.6099-236.974 51.4981-236.974 47.6596L-236.974 33.7589C-236.974 29.9203-233.862 26.8085-230.024 26.8085Z" stroke="#808080" stroke-width="0.992908" stroke-linecap="round" stroke-linejoin="round" stroke-miterlimit="4" stroke-opacity="1" fill="none" fill-rule="nonzero" transform="matrix(1.00714 0 0 1 430.5 212.894)"/><text fill="#000000" fill-opacity="1" font-family="Helvetica Neue,Helvetica Neue_MSFontService,sans-serif" font-style="normal" font-variant="normal" font-weight="400" font-stretch="normal" font-size="14" text-anchor="start" direction="ltr" writing-mode="lr-tb" unicode-bidi="normal" text-decoration="none" transform="matrix(0.999848 0.0173286 -0.0174524 0.992757 198.133 258)">26</text><path d="M-117.494-0.992908-103.262-0.992908C-99.4238-0.992908-96.3121 2.11887-96.3121 5.95745L-96.3121 19.8582C-96.3121 23.6967-99.4238 26.8085-103.262 26.8085L-117.494 26.8085C-121.333 26.8085-124.444 23.6967-124.444 19.8582L-124.444 5.95745C-124.444 2.11887-121.333-0.992908-117.494-0.992908Z" stroke="#808080" stroke-width="0.992908" stroke-linecap="round" stroke-linejoin="round" stroke-miterlimit="4" stroke-opacity="1" fill="none" fill-rule="nonzero" transform="matrix(1.00714 0 0 1 430.5 212.894)"/><text fill="#000000" fill-opacity="1" font-family="Helvetica Neue,Helvetica Neue_MSFontService,sans-serif" font-style="normal" font-variant="normal" font-weight="400" font-stretch="normal" font-size="14" text-anchor="start" direction="ltr" writing-mode="lr-tb" unicode-bidi="normal" text-decoration="none" transform="matrix(0.999848 0.0173286 -0.0174524 0.992757 311.467 230)">24</text><path d="M-173.759-28.7943-159.527-28.7943C-155.689-28.7943-152.577-25.6825-152.577-21.844L-152.577-7.94326C-152.577-4.10469-155.689-0.992908-159.527-0.992908L-173.759-0.992908C-177.597-0.992908-180.709-4.10469-180.709-7.94326L-180.709-21.844C-180.709-25.6825-177.597-28.7943-173.759-28.7943Z" stroke="#808080" stroke-width="0.992908" stroke-linecap="round" stroke-linejoin="round" stroke-miterlimit="4" stroke-opacity="1" fill="none" fill-rule="nonzero" transform="matrix(1.00714 0 0 1 430.5 212.894)"/><text fill="#000000" fill-opacity="1" font-family="Helvetica Neue,Helvetica Neue_MSFontService,sans-serif" font-style="normal" font-variant="normal" font-weight="400" font-stretch="normal" font-size="14" text-anchor="start" direction="ltr" writing-mode="lr-tb" unicode-bidi="normal" text-decoration="none" transform="matrix(0.999848 0.0173286 -0.0174524 0.992757 254.8 203)">16</text><path d="M-201.891-56.5957-187.66-56.5957C-183.821-56.5957-180.709-53.484-180.709-49.6454L-180.709-35.7447C-180.709-31.9061-183.821-28.7943-187.66-28.7943L-201.891-28.7943C-205.73-28.7943-208.842-31.9061-208.842-35.7447L-208.842-49.6454C-208.842-53.484-205.73-56.5957-201.891-56.5957Z" stroke="#808080" stroke-width="0.992908" stroke-linecap="round" stroke-linejoin="round" stroke-miterlimit="4" stroke-opacity="1" fill="none" fill-rule="nonzero" transform="matrix(1.00714 0 0 1 430.5 212.894)"/><text fill="#000000" fill-opacity="1" font-family="Helvetica Neue,Helvetica Neue_MSFontService,sans-serif" font-style="normal" font-variant="normal" font-weight="400" font-stretch="normal" font-size="14" text-anchor="start" direction="ltr" writing-mode="lr-tb" unicode-bidi="normal" text-decoration="none" transform="matrix(0.999848 0.0173286 -0.0174524 0.992757 230.358 175)">9</text><path d="M-173.759-84.3972-159.527-84.3972C-155.689-84.3972-152.577-81.2854-152.577-77.4468L-152.577-63.5461C-152.577-59.7075-155.689-56.5957-159.527-56.5957L-173.759-56.5957C-177.597-56.5957-180.709-59.7075-180.709-63.5461L-180.709-77.4468C-180.709-81.2854-177.597-84.3972-173.759-84.3972Z" stroke="#808080" stroke-width="0.992908" stroke-linecap="round" stroke-linejoin="round" stroke-miterlimit="4" stroke-opacity="1" fill="none" fill-rule="nonzero" transform="matrix(1.00714 0 0 1 430.5 212.894)"/><text fill="#000000" fill-opacity="1" font-family="Helvetica Neue,Helvetica Neue_MSFontService,sans-serif" font-style="normal" font-variant="normal" font-weight="400" font-stretch="normal" font-size="14" text-anchor="start" direction="ltr" writing-mode="lr-tb" unicode-bidi="normal" text-decoration="none" transform="matrix(0.999848 0.0173286 -0.0174524 0.992757 258.691 147)">4</text><path d="M-145.626 26.8085-131.395 26.8085C-127.556 26.8085-124.444 29.9203-124.444 33.7589L-124.444 47.6596C-124.444 51.4981-127.556 54.6099-131.395 54.6099L-145.626 54.6099C-149.465 54.6099-152.577 51.4981-152.577 47.6596L-152.577 33.7589C-152.577 29.9203-149.465 26.8085-145.626 26.8085Z" stroke="#808080" stroke-width="0.992908" stroke-linecap="round" stroke-linejoin="round" stroke-miterlimit="4" stroke-opacity="1" fill="none" fill-rule="nonzero" transform="matrix(1.00714 0 0 1 430.5 212.894)"/><text fill="#000000" fill-opacity="1" font-family="Helvetica Neue,Helvetica Neue_MSFontService,sans-serif" font-style="normal" font-variant="normal" font-weight="400" font-stretch="normal" font-size="14" text-anchor="start" direction="ltr" writing-mode="lr-tb" unicode-bidi="normal" text-decoration="none" transform="matrix(0.999848 0.0173286 -0.0174524 0.992757 283.133 258)">29</text><path d="M-230.024-0.992908-215.792-0.992908C-211.953-0.992908-208.842 2.11887-208.842 5.95745L-208.842 19.8582C-208.842 23.6967-211.953 26.8085-215.792 26.8085L-230.024 26.8085C-233.862 26.8085-236.974 23.6967-236.974 19.8582L-236.974 5.95745C-236.974 2.11887-233.862-0.992908-230.024-0.992908Z" stroke="#808080" stroke-width="0.992908" stroke-linecap="round" stroke-linejoin="round" stroke-miterlimit="4" stroke-opacity="1" fill="none" fill-rule="nonzero" transform="matrix(1.00714 0 0 1 430.5 212.894)"/><text fill="#000000" fill-opacity="1" font-family="Helvetica Neue,Helvetica Neue_MSFontService,sans-serif" font-style="normal" font-variant="normal" font-weight="400" font-stretch="normal" font-size="14" text-anchor="start" direction="ltr" writing-mode="lr-tb" unicode-bidi="normal" text-decoration="none" transform="matrix(0.999848 0.0173286 -0.0174524 0.992757 198.133 230)">20</text><path d="M-117.494-56.5957-103.262-56.5957C-99.4238-56.5957-96.3121-53.484-96.3121-49.6454L-96.3121-35.7447C-96.3121-31.9061-99.4238-28.7943-103.262-28.7943L-117.494-28.7943C-121.333-28.7943-124.444-31.9061-124.444-35.7447L-124.444-49.6454C-124.444-53.484-121.333-56.5957-117.494-56.5957Z" stroke="#808080" stroke-width="0.992908" stroke-linecap="round" stroke-linejoin="round" stroke-miterlimit="4" stroke-opacity="1" fill="none" fill-rule="nonzero" transform="matrix(1.00714 0 0 1 430.5 212.894)"/><text fill="#000000" fill-opacity="1" font-family="Helvetica Neue,Helvetica Neue_MSFontService,sans-serif" font-style="normal" font-variant="normal" font-weight="400" font-stretch="normal" font-size="14" text-anchor="start" direction="ltr" writing-mode="lr-tb" unicode-bidi="normal" text-decoration="none" transform="matrix(0.999848 0.0173286 -0.0174524 0.992757 311.467 175)">12</text><path d="M-258.156-28.7943-243.924-28.7943C-240.086-28.7943-236.974-25.6825-236.974-21.844L-236.974-7.94326C-236.974-4.10469-240.086-0.992908-243.924-0.992908L-258.156-0.992908C-261.995-0.992908-265.106-4.10469-265.106-7.94326L-265.106-21.844C-265.106-25.6825-261.995-28.7943-258.156-28.7943Z" stroke="#808080" stroke-width="0.992908" stroke-linecap="round" stroke-linejoin="round" stroke-miterlimit="4" stroke-opacity="1" fill="none" fill-rule="nonzero" transform="matrix(1.00714 0 0 1 430.5 212.894)"/><text fill="#000000" fill-opacity="1" font-family="Helvetica Neue,Helvetica Neue_MSFontService,sans-serif" font-style="normal" font-variant="normal" font-weight="400" font-stretch="normal" font-size="14" text-anchor="start" direction="ltr" writing-mode="lr-tb" unicode-bidi="normal" text-decoration="none" transform="matrix(0.999848 0.0173286 -0.0174524 0.992757 169.8 203)">13</text><path d="M-201.891-28.7943-187.66-28.7943C-183.821-28.7943-180.709-25.6825-180.709-21.844L-180.709-7.94326C-180.709-4.10469-183.821-0.992908-187.66-0.992908L-201.891-0.992908C-205.73-0.992908-208.842-4.10469-208.842-7.94326L-208.842-21.844C-208.842-25.6825-205.73-28.7943-201.891-28.7943Z" stroke="#808080" stroke-width="0.992908" stroke-linecap="round" stroke-linejoin="round" stroke-miterlimit="4" stroke-opacity="1" fill="none" fill-rule="nonzero" transform="matrix(1.00714 0 0 1 430.5 212.894)"/><text fill="#000000" fill-opacity="1" font-family="Helvetica Neue,Helvetica Neue_MSFontService,sans-serif" font-style="normal" font-variant="normal" font-weight="400" font-stretch="normal" font-size="14" text-anchor="start" direction="ltr" writing-mode="lr-tb" unicode-bidi="normal" text-decoration="none" transform="matrix(0.999848 0.0173286 -0.0174524 0.992757 226.467 203)">15</text><path d="M-145.626-84.3972-131.395-84.3972C-127.556-84.3972-124.444-81.2854-124.444-77.4468L-124.444-63.5461C-124.444-59.7075-127.556-56.5957-131.395-56.5957L-145.626-56.5957C-149.465-56.5957-152.577-59.7075-152.577-63.5461L-152.577-77.4468C-152.577-81.2854-149.465-84.3972-145.626-84.3972Z" stroke="#808080" stroke-width="0.992908" stroke-linecap="round" stroke-linejoin="round" stroke-miterlimit="4" stroke-opacity="1" fill="none" fill-rule="nonzero" transform="matrix(1.00714 0 0 1 430.5 212.894)"/><text fill="#000000" fill-opacity="1" font-family="Helvetica Neue,Helvetica Neue_MSFontService,sans-serif" font-style="normal" font-variant="normal" font-weight="400" font-stretch="normal" font-size="14" text-anchor="start" direction="ltr" writing-mode="lr-tb" unicode-bidi="normal" text-decoration="none" transform="matrix(0.999848 0.0173286 -0.0174524 0.992757 287.025 147)">5</text><path d="M-173.759-56.5957-159.527-56.5957C-155.689-56.5957-152.577-53.484-152.577-49.6454L-152.577-35.7447C-152.577-31.9061-155.689-28.7943-159.527-28.7943L-173.759-28.7943C-177.597-28.7943-180.709-31.9061-180.709-35.7447L-180.709-49.6454C-180.709-53.484-177.597-56.5957-173.759-56.5957Z" stroke="#808080" stroke-width="0.992908" stroke-linecap="round" stroke-linejoin="round" stroke-miterlimit="4" stroke-opacity="1" fill="none" fill-rule="nonzero" transform="matrix(1.00714 0 0 1 430.5 212.894)"/><text fill="#000000" fill-opacity="1" font-family="Helvetica Neue,Helvetica Neue_MSFontService,sans-serif" font-style="normal" font-variant="normal" font-weight="400" font-stretch="normal" font-size="14" text-anchor="start" direction="ltr" writing-mode="lr-tb" unicode-bidi="normal" text-decoration="none" transform="matrix(0.999848 0.0173286 -0.0174524 0.992757 254.8 175)">10</text><path d="M50.3074-14.8936C50.3074-7.21645 44.0097-0.992886 36.2411-0.992886 28.4726-0.992886 22.1749-7.21645 22.1749-14.8936 22.1749-22.5708 28.4726-28.7943 36.2411-28.7943 44.0097-28.7943 50.3074-22.5708 50.3074-14.8936Z" fill="#37A58A" fill-rule="nonzero" fill-opacity="1" transform="matrix(1.00714 0 0 1 430.5 212.894)"/><path d="M50.3074-14.8936C50.3074-7.21645 44.0097-0.992886 36.2411-0.992886 28.4726-0.992886 22.1749-7.21645 22.1749-14.8936 22.1749-22.5708 28.4726-28.7943 36.2411-28.7943 44.0097-28.7943 50.3074-22.5708 50.3074-14.8936Z" stroke="#808080" stroke-width="0.992908" stroke-linecap="round" stroke-linejoin="round" stroke-miterlimit="4" stroke-opacity="1" fill="none" fill-rule="nonzero" transform="matrix(1.00714 0 0 1 430.5 212.894)"/><text fill="#FFFFFF" fill-opacity="1" font-family="Helvetica Neue,Helvetica Neue_MSFontService,sans-serif" font-style="normal" font-variant="normal" font-weight="400" font-stretch="normal" font-size="14" text-anchor="start" direction="ltr" writing-mode="lr-tb" unicode-bidi="normal" text-decoration="none" transform="matrix(0.999848 0.0173286 -0.0174524 0.992757 459.133 203)">14</text><path d="M141.655-28.7943 155.887-28.7943C159.725-28.7943 162.837-25.6825 162.837-21.844L162.837-7.94326C162.837-4.10469 159.725-0.992908 155.887-0.992908L141.655-0.992908C137.816-0.992908 134.704-4.10469 134.704-7.94326L134.704-21.844C134.704-25.6825 137.816-28.7943 141.655-28.7943Z" fill="#DEAD26" fill-rule="nonzero" fill-opacity="0.249251" transform="matrix(1.00714 0 0 1 430.5 212.894)"/><path d="M141.655-28.7943 155.887-28.7943C159.725-28.7943 162.837-25.6825 162.837-21.844L162.837-7.94326C162.837-4.10469 159.725-0.992908 155.887-0.992908L141.655-0.992908C137.816-0.992908 134.704-4.10469 134.704-7.94326L134.704-21.844C134.704-25.6825 137.816-28.7943 141.655-28.7943Z" stroke="#808080" stroke-width="0.992908" stroke-linecap="round" stroke-linejoin="round" stroke-miterlimit="4" stroke-opacity="1" fill="none" fill-rule="nonzero" transform="matrix(1.00714 0 0 1 430.5 212.894)"/><text fill="#000000" fill-opacity="1" font-family="Helvetica Neue,Helvetica Neue_MSFontService,sans-serif" font-style="normal" font-variant="normal" font-weight="400" font-stretch="normal" font-size="14" text-anchor="start" direction="ltr" writing-mode="lr-tb" unicode-bidi="normal" text-decoration="none" transform="matrix(0.999848 0.0173286 -0.0174524 0.992757 572.467 203)">18</text><path d="M78.4397 47.6596 78.4397 39.8126C78.4397 37.4741 79.6156 35.2924 81.5689 34.0068L88.6848 29.3234C91.0036 27.7973 94.0082 27.7973 96.327 29.3234L103.443 34.0068C105.396 35.2924 106.572 37.4741 106.572 39.8126L106.572 47.6596C106.572 51.4981 103.46 54.6099 99.6217 54.6099L85.3901 54.6099C81.5515 54.6099 78.4397 51.4981 78.4397 47.6596Z" fill="#7BCDF4" fill-rule="nonzero" fill-opacity="1" transform="matrix(1.00714 0 0 1 430.5 212.894)"/><path d="M78.4397 47.6596 78.4397 39.8126C78.4397 37.4741 79.6156 35.2924 81.5689 34.0068L88.6848 29.3234C91.0036 27.7973 94.0082 27.7973 96.327 29.3234L103.443 34.0068C105.396 35.2924 106.572 37.4741 106.572 39.8126L106.572 47.6596C106.572 51.4981 103.46 54.6099 99.6217 54.6099L85.3901 54.6099C81.5515 54.6099 78.4397 51.4981 78.4397 47.6596Z" stroke="#808080" stroke-width="0.992908" stroke-linecap="round" stroke-linejoin="round" stroke-miterlimit="4" stroke-opacity="1" fill="none" fill-rule="nonzero" transform="matrix(1.00714 0 0 1 430.5 212.894)"/><text fill="#000000" fill-opacity="1" font-family="Helvetica Neue,Helvetica Neue_MSFontService,sans-serif" font-style="normal" font-variant="normal" font-weight="400" font-stretch="normal" font-size="14" text-anchor="start" direction="ltr" writing-mode="lr-tb" unicode-bidi="normal" text-decoration="none" transform="matrix(0.999848 0.0173286 -0.0174524 0.992757 515.8 258)">28</text><path d="M134.705-14.8936C134.705-7.21645 128.407-0.992886 120.638-0.992886 112.87-0.992886 106.572-7.21645 106.572-14.8936 106.572-22.5708 112.87-28.7943 120.638-28.7943 128.407-28.7943 134.705-22.5708 134.705-14.8936Z" fill="#37A58A" fill-rule="nonzero" fill-opacity="1" transform="matrix(1.00714 0 0 1 430.5 212.894)"/><path d="M134.705-14.8936C134.705-7.21645 128.407-0.992886 120.638-0.992886 112.87-0.992886 106.572-7.21645 106.572-14.8936 106.572-22.5708 112.87-28.7943 120.638-28.7943 128.407-28.7943 134.705-22.5708 134.705-14.8936Z" stroke="#808080" stroke-width="0.992908" stroke-linecap="round" stroke-linejoin="round" stroke-miterlimit="4" stroke-opacity="1" fill="none" fill-rule="nonzero" transform="matrix(1.00714 0 0 1 430.5 212.894)"/><text fill="#FFFFFF" fill-opacity="1" font-family="Helvetica Neue,Helvetica Neue_MSFontService,sans-serif" font-style="normal" font-variant="normal" font-weight="400" font-stretch="normal" font-size="14" text-anchor="start" direction="ltr" writing-mode="lr-tb" unicode-bidi="normal" text-decoration="none" transform="matrix(0.999848 0.0173286 -0.0174524 0.992757 544.133 203)">17</text><path d="M57.2577-0.992908 71.4894-0.992908C75.3279-0.992908 78.4397 2.11887 78.4397 5.95745L78.4397 19.8582C78.4397 23.6967 75.3279 26.8085 71.4894 26.8085L57.2577 26.8085C53.4191 26.8085 50.3073 23.6967 50.3073 19.8582L50.3073 5.95745C50.3073 2.11887 53.4191-0.992908 57.2577-0.992908Z" fill="#37A58A" fill-rule="nonzero" fill-opacity="1" transform="matrix(1.00714 0 0 1 430.5 212.894)"/><path d="M57.2577-0.992908 71.4894-0.992908C75.3279-0.992908 78.4397 2.11887 78.4397 5.95745L78.4397 19.8582C78.4397 23.6967 75.3279 26.8085 71.4894 26.8085L57.2577 26.8085C53.4191 26.8085 50.3073 23.6967 50.3073 19.8582L50.3073 5.95745C50.3073 2.11887 53.4191-0.992908 57.2577-0.992908Z" stroke="#808080" stroke-width="0.992908" stroke-linecap="round" stroke-linejoin="round" stroke-miterlimit="4" stroke-opacity="1" fill="none" fill-rule="nonzero" transform="matrix(1.00714 0 0 1 430.5 212.894)"/><text fill="#FFFFFF" fill-opacity="1" font-family="Helvetica Neue,Helvetica Neue_MSFontService,sans-serif" font-style="normal" font-variant="normal" font-weight="400" font-stretch="normal" font-size="14" text-anchor="start" direction="ltr" writing-mode="lr-tb" unicode-bidi="normal" text-decoration="none" transform="matrix(0.999848 0.0173286 -0.0174524 0.992757 487.467 230)">21</text><path d="M0.992908 26.8085 15.2246 26.8085C19.0632 26.8085 22.1749 29.9203 22.1749 33.7589L22.1749 47.6596C22.1749 51.4981 19.0632 54.6099 15.2246 54.6099L0.992908 54.6099C-2.84567 54.6099-5.95745 51.4981-5.95745 47.6596L-5.95745 33.7589C-5.95745 29.9203-2.84567 26.8085 0.992908 26.8085Z" fill="#DEAD26" fill-rule="nonzero" fill-opacity="0.249251" transform="matrix(1.00714 0 0 1 430.5 212.894)"/><path d="M0.992908 26.8085 15.2246 26.8085C19.0632 26.8085 22.1749 29.9203 22.1749 33.7589L22.1749 47.6596C22.1749 51.4981 19.0632 54.6099 15.2246 54.6099L0.992908 54.6099C-2.84567 54.6099-5.95745 51.4981-5.95745 47.6596L-5.95745 33.7589C-5.95745 29.9203-2.84567 26.8085 0.992908 26.8085Z" stroke="#808080" stroke-width="0.992908" stroke-linecap="round" stroke-linejoin="round" stroke-miterlimit="4" stroke-opacity="1" fill="none" fill-rule="nonzero" transform="matrix(1.00714 0 0 1 430.5 212.894)"/><text fill="#000000" fill-opacity="1" font-family="Helvetica Neue,Helvetica Neue_MSFontService,sans-serif" font-style="normal" font-variant="normal" font-weight="400" font-stretch="normal" font-size="14" text-anchor="start" direction="ltr" writing-mode="lr-tb" unicode-bidi="normal" text-decoration="none" transform="matrix(0.999848 0.0173286 -0.0174524 0.992757 430.8 258)">25</text><path d="M85.3901-0.992908 99.6217-0.992908C103.46-0.992908 106.572 2.11887 106.572 5.95745L106.572 19.8582C106.572 23.6967 103.46 26.8085 99.6217 26.8085L85.3901 26.8085C81.5515 26.8085 78.4397 23.6967 78.4397 19.8582L78.4397 5.95745C78.4397 2.11887 81.5515-0.992908 85.3901-0.992908Z" fill="#DEAD26" fill-rule="nonzero" fill-opacity="0.249251" transform="matrix(1.00714 0 0 1 430.5 212.894)"/><path d="M85.3901-0.992908 99.6217-0.992908C103.46-0.992908 106.572 2.11887 106.572 5.95745L106.572 19.8582C106.572 23.6967 103.46 26.8085 99.6217 26.8085L85.3901 26.8085C81.5515 26.8085 78.4397 23.6967 78.4397 19.8582L78.4397 5.95745C78.4397 2.11887 81.5515-0.992908 85.3901-0.992908Z" stroke="#808080" stroke-width="0.992908" stroke-linecap="round" stroke-linejoin="round" stroke-miterlimit="4" stroke-opacity="1" fill="none" fill-rule="nonzero" transform="matrix(1.00714 0 0 1 430.5 212.894)"/><text fill="#000000" fill-opacity="1" font-family="Helvetica Neue,Helvetica Neue_MSFontService,sans-serif" font-style="normal" font-variant="normal" font-weight="400" font-stretch="normal" font-size="14" text-anchor="start" direction="ltr" writing-mode="lr-tb" unicode-bidi="normal" text-decoration="none" transform="matrix(0.999848 0.0173286 -0.0174524 0.992757 515.8 230)">22</text><path d="M22.1749-35.7447 22.1749-43.5917C22.1749-45.9301 23.3508-48.1118 25.3042-49.3974L32.42-54.0808C34.7388-55.607 37.7434-55.607 40.0623-54.0808L47.1781-49.3974C49.1314-48.1118 50.3073-45.9301 50.3073-43.5917L50.3073-35.7447C50.3073-31.9061 47.1956-28.7943 43.357-28.7943L29.1253-28.7943C25.2867-28.7943 22.1749-31.9061 22.1749-35.7447Z" fill="#7BCDF4" fill-rule="nonzero" fill-opacity="1" transform="matrix(1.00714 0 0 1 430.5 212.894)"/><path d="M22.1749-35.7447 22.1749-43.5917C22.1749-45.9301 23.3508-48.1118 25.3042-49.3974L32.42-54.0808C34.7388-55.607 37.7434-55.607 40.0623-54.0808L47.1781-49.3974C49.1314-48.1118 50.3073-45.9301 50.3073-43.5917L50.3073-35.7447C50.3073-31.9061 47.1956-28.7943 43.357-28.7943L29.1253-28.7943C25.2867-28.7943 22.1749-31.9061 22.1749-35.7447Z" stroke="#808080" stroke-width="0.992908" stroke-linecap="round" stroke-linejoin="round" stroke-miterlimit="4" stroke-opacity="1" fill="none" fill-rule="nonzero" transform="matrix(1.00714 0 0 1 430.5 212.894)"/><text fill="#000000" fill-opacity="1" font-family="Helvetica Neue,Helvetica Neue_MSFontService,sans-serif" font-style="normal" font-variant="normal" font-weight="400" font-stretch="normal" font-size="14" text-anchor="start" direction="ltr" writing-mode="lr-tb" unicode-bidi="normal" text-decoration="none" transform="matrix(0.999848 0.0173286 -0.0174524 0.992757 463.025 175)">8</text><path d="M134.704-63.5461 134.704-71.3931C134.704-73.7316 135.88-75.9132 137.834-77.1988L144.95-81.8822C147.268-83.4084 150.273-83.4084 152.592-81.8822L159.708-77.1988C161.661-75.9132 162.837-73.7316 162.837-71.3931L162.837-63.5461C162.837-59.7075 159.725-56.5957 155.887-56.5957L141.655-56.5957C137.816-56.5957 134.704-59.7075 134.704-63.5461Z" fill="#7BCDF4" fill-rule="nonzero" fill-opacity="1" transform="matrix(1.00714 0 0 1 430.5 212.894)"/><path d="M134.704-63.5461 134.704-71.3931C134.704-73.7316 135.88-75.9132 137.834-77.1988L144.95-81.8822C147.268-83.4084 150.273-83.4084 152.592-81.8822L159.708-77.1988C161.661-75.9132 162.837-73.7316 162.837-71.3931L162.837-63.5461C162.837-59.7075 159.725-56.5957 155.887-56.5957L141.655-56.5957C137.816-56.5957 134.704-59.7075 134.704-63.5461Z" stroke="#808080" stroke-width="0.992908" stroke-linecap="round" stroke-linejoin="round" stroke-miterlimit="4" stroke-opacity="1" fill="none" fill-rule="nonzero" transform="matrix(1.00714 0 0 1 430.5 212.894)"/><text fill="#000000" fill-opacity="1" font-family="Helvetica Neue,Helvetica Neue_MSFontService,sans-serif" font-style="normal" font-variant="normal" font-weight="400" font-stretch="normal" font-size="14" text-anchor="start" direction="ltr" writing-mode="lr-tb" unicode-bidi="normal" text-decoration="none" transform="matrix(0.999848 0.0173286 -0.0174524 0.992757 576.358 147)">6</text><path d="M162.837 40.7092C162.837 48.3864 156.539 54.61 148.771 54.61 141.002 54.61 134.704 48.3864 134.704 40.7092 134.704 33.0321 141.002 26.8085 148.771 26.8085 156.539 26.8085 162.837 33.0321 162.837 40.7092Z" fill="#37A58A" fill-rule="nonzero" fill-opacity="1" transform="matrix(1.00714 0 0 1 430.5 212.894)"/><path d="M162.837 40.7092C162.837 48.3864 156.539 54.61 148.771 54.61 141.002 54.61 134.704 48.3864 134.704 40.7092 134.704 33.0321 141.002 26.8085 148.771 26.8085 156.539 26.8085 162.837 33.0321 162.837 40.7092Z" stroke="#808080" stroke-width="0.992908" stroke-linecap="round" stroke-linejoin="round" stroke-miterlimit="4" stroke-opacity="1" fill="none" fill-rule="nonzero" transform="matrix(1.00714 0 0 1 430.5 212.894)"/><text fill="#FFFFFF" fill-opacity="1" font-family="Helvetica Neue,Helvetica Neue_MSFontService,sans-serif" font-style="normal" font-variant="normal" font-weight="400" font-stretch="normal" font-size="14" text-anchor="start" direction="ltr" writing-mode="lr-tb" unicode-bidi="normal" text-decoration="none" transform="matrix(0.999848 0.0173286 -0.0174524 0.992757 572.467 258)">30</text><path d="M22.175-70.4965C22.175-62.8193 15.8773-56.5957 8.10875-56.5957 0.340192-56.5957-5.95747-62.8193-5.95747-70.4965-5.95747-78.1736 0.340191-84.3972 8.10875-84.3972 15.8773-84.3972 22.175-78.1736 22.175-70.4965Z" fill="#37A58A" fill-rule="nonzero" fill-opacity="1" transform="matrix(1.00714 0 0 1 430.5 212.894)"/><path d="M22.175-70.4965C22.175-62.8193 15.8773-56.5957 8.10875-56.5957 0.340192-56.5957-5.95747-62.8193-5.95747-70.4965-5.95747-78.1736 0.340191-84.3972 8.10875-84.3972 15.8773-84.3972 22.175-78.1736 22.175-70.4965Z" stroke="#808080" stroke-width="0.992908" stroke-linecap="round" stroke-linejoin="round" stroke-miterlimit="4" stroke-opacity="1" fill="none" fill-rule="nonzero" transform="matrix(1.00714 0 0 1 430.5 212.894)"/><text fill="#FFFFFF" fill-opacity="1" font-family="Helvetica Neue,Helvetica Neue_MSFontService,sans-serif" font-style="normal" font-variant="normal" font-weight="400" font-stretch="normal" font-size="14" text-anchor="start" direction="ltr" writing-mode="lr-tb" unicode-bidi="normal" text-decoration="none" transform="matrix(0.999848 0.0173286 -0.0174524 0.992757 434.691 147)">1</text><path d="M113.522-0.992908 127.754-0.992908C131.593-0.992908 134.704 2.11887 134.704 5.95745L134.704 19.8582C134.704 23.6967 131.593 26.8085 127.754 26.8085L113.522 26.8085C109.684 26.8085 106.572 23.6967 106.572 19.8582L106.572 5.95745C106.572 2.11887 109.684-0.992908 113.522-0.992908Z" fill="#DEAD26" fill-rule="nonzero" fill-opacity="0.249251" transform="matrix(1.00714 0 0 1 430.5 212.894)"/><path d="M113.522-0.992908 127.754-0.992908C131.593-0.992908 134.704 2.11887 134.704 5.95745L134.704 19.8582C134.704 23.6967 131.593 26.8085 127.754 26.8085L113.522 26.8085C109.684 26.8085 106.572 23.6967 106.572 19.8582L106.572 5.95745C106.572 2.11887 109.684-0.992908 113.522-0.992908Z" stroke="#808080" stroke-width="0.992908" stroke-linecap="round" stroke-linejoin="round" stroke-miterlimit="4" stroke-opacity="1" fill="none" fill-rule="nonzero" transform="matrix(1.00714 0 0 1 430.5 212.894)"/><text fill="#000000" fill-opacity="1" font-family="Helvetica Neue,Helvetica Neue_MSFontService,sans-serif" font-style="normal" font-variant="normal" font-weight="400" font-stretch="normal" font-size="14" text-anchor="start" direction="ltr" writing-mode="lr-tb" unicode-bidi="normal" text-decoration="none" transform="matrix(0.999848 0.0173286 -0.0174524 0.992757 544.133 230)">23</text><path d="M57.2577 26.8085 71.4894 26.8085C75.3279 26.8085 78.4397 29.9203 78.4397 33.7589L78.4397 47.6596C78.4397 51.4981 75.3279 54.6099 71.4894 54.6099L57.2577 54.6099C53.4191 54.6099 50.3073 51.4981 50.3073 47.6596L50.3073 33.7589C50.3073 29.9203 53.4191 26.8085 57.2577 26.8085Z" fill="#DEAD26" fill-rule="nonzero" fill-opacity="0.249251" transform="matrix(1.00714 0 0 1 430.5 212.894)"/><path d="M57.2577 26.8085 71.4894 26.8085C75.3279 26.8085 78.4397 29.9203 78.4397 33.7589L78.4397 47.6596C78.4397 51.4981 75.3279 54.6099 71.4894 54.6099L57.2577 54.6099C53.4191 54.6099 50.3073 51.4981 50.3073 47.6596L50.3073 33.7589C50.3073 29.9203 53.4191 26.8085 57.2577 26.8085Z" stroke="#808080" stroke-width="0.992908" stroke-linecap="round" stroke-linejoin="round" stroke-miterlimit="4" stroke-opacity="1" fill="none" fill-rule="nonzero" transform="matrix(1.00714 0 0 1 430.5 212.894)"/><text fill="#000000" fill-opacity="1" font-family="Helvetica Neue,Helvetica Neue_MSFontService,sans-serif" font-style="normal" font-variant="normal" font-weight="400" font-stretch="normal" font-size="14" text-anchor="start" direction="ltr" writing-mode="lr-tb" unicode-bidi="normal" text-decoration="none" transform="matrix(0.999848 0.0173286 -0.0174524 0.992757 487.467 258)">27</text><path d="M78.4397-70.4965C78.4397-62.8193 72.1421-56.5957 64.3735-56.5957 56.605-56.5957 50.3073-62.8193 50.3073-70.4965 50.3073-78.1736 56.605-84.3972 64.3735-84.3972 72.1421-84.3972 78.4397-78.1736 78.4397-70.4965Z" fill="#37A58A" fill-rule="nonzero" fill-opacity="1" transform="matrix(1.00714 0 0 1 430.5 212.894)"/><path d="M78.4397-70.4965C78.4397-62.8193 72.1421-56.5957 64.3735-56.5957 56.605-56.5957 50.3073-62.8193 50.3073-70.4965 50.3073-78.1736 56.605-84.3972 64.3735-84.3972 72.1421-84.3972 78.4397-78.1736 78.4397-70.4965Z" stroke="#808080" stroke-width="0.992908" stroke-linecap="round" stroke-linejoin="round" stroke-miterlimit="4" stroke-opacity="1" fill="none" fill-rule="nonzero" transform="matrix(1.00714 0 0 1 430.5 212.894)"/><text fill="#FFFFFF" fill-opacity="1" font-family="Helvetica Neue,Helvetica Neue_MSFontService,sans-serif" font-style="normal" font-variant="normal" font-weight="400" font-stretch="normal" font-size="14" text-anchor="start" direction="ltr" writing-mode="lr-tb" unicode-bidi="normal" text-decoration="none" transform="matrix(0.999848 0.0173286 -0.0174524 0.992757 491.358 147)">3</text><path d="M29.1253-84.3972 43.357-84.3972C47.1956-84.3972 50.3073-81.2854 50.3073-77.4468L50.3073-63.5461C50.3073-59.7075 47.1956-56.5957 43.357-56.5957L29.1253-56.5957C25.2867-56.5957 22.1749-59.7075 22.1749-63.5461L22.1749-77.4468C22.1749-81.2854 25.2867-84.3972 29.1253-84.3972Z" fill="#DEAD26" fill-rule="nonzero" fill-opacity="0.249251" transform="matrix(1.00714 0 0 1 430.5 212.894)"/><path d="M29.1253-84.3972 43.357-84.3972C47.1956-84.3972 50.3073-81.2854 50.3073-77.4468L50.3073-63.5461C50.3073-59.7075 47.1956-56.5957 43.357-56.5957L29.1253-56.5957C25.2867-56.5957 22.1749-59.7075 22.1749-63.5461L22.1749-77.4468C22.1749-81.2854 25.2867-84.3972 29.1253-84.3972Z" stroke="#808080" stroke-width="0.992908" stroke-linecap="round" stroke-linejoin="round" stroke-miterlimit="4" stroke-opacity="1" fill="none" fill-rule="nonzero" transform="matrix(1.00714 0 0 1 430.5 212.894)"/><text fill="#000000" fill-opacity="1" font-family="Helvetica Neue,Helvetica Neue_MSFontService,sans-serif" font-style="normal" font-variant="normal" font-weight="400" font-stretch="normal" font-size="14" text-anchor="start" direction="ltr" writing-mode="lr-tb" unicode-bidi="normal" text-decoration="none" transform="matrix(0.999848 0.0173286 -0.0174524 0.992757 463.025 147)">2</text><path d="M22.175 12.9078C22.175 20.585 15.8773 26.8085 8.10875 26.8085 0.340192 26.8085-5.95747 20.585-5.95747 12.9078-5.95747 5.23064 0.340191-0.992929 8.10875-0.992929 15.8773-0.992929 22.175 5.23064 22.175 12.9078Z" fill="#37A58A" fill-rule="nonzero" fill-opacity="1" transform="matrix(1.00714 0 0 1 430.5 212.894)"/><path d="M22.175 12.9078C22.175 20.585 15.8773 26.8085 8.10875 26.8085 0.340192 26.8085-5.95747 20.585-5.95747 12.9078-5.95747 5.23064 0.340191-0.992929 8.10875-0.992929 15.8773-0.992929 22.175 5.23064 22.175 12.9078Z" stroke="#808080" stroke-width="0.992908" stroke-linecap="round" stroke-linejoin="round" stroke-miterlimit="4" stroke-opacity="1" fill="none" fill-rule="nonzero" transform="matrix(1.00714 0 0 1 430.5 212.894)"/><text fill="#FFFFFF" fill-opacity="1" font-family="Helvetica Neue,Helvetica Neue_MSFontService,sans-serif" font-style="normal" font-variant="normal" font-weight="400" font-stretch="normal" font-size="14" text-anchor="start" direction="ltr" writing-mode="lr-tb" unicode-bidi="normal" text-decoration="none" transform="matrix(0.999848 0.0173286 -0.0174524 0.992757 430.8 230)">19</text><path d="M113.522-56.5957 127.754-56.5957C131.593-56.5957 134.704-53.484 134.704-49.6454L134.704-35.7447C134.704-31.9061 131.593-28.7943 127.754-28.7943L113.522-28.7943C109.684-28.7943 106.572-31.9061 106.572-35.7447L106.572-49.6454C106.572-53.484 109.684-56.5957 113.522-56.5957Z" fill="#DEAD26" fill-rule="nonzero" fill-opacity="0.249251" transform="matrix(1.00714 0 0 1 430.5 212.894)"/><path d="M113.522-56.5957 127.754-56.5957C131.593-56.5957 134.704-53.484 134.704-49.6454L134.704-35.7447C134.704-31.9061 131.593-28.7943 127.754-28.7943L113.522-28.7943C109.684-28.7943 106.572-31.9061 106.572-35.7447L106.572-49.6454C106.572-53.484 109.684-56.5957 113.522-56.5957Z" stroke="#808080" stroke-width="0.992908" stroke-linecap="round" stroke-linejoin="round" stroke-miterlimit="4" stroke-opacity="1" fill="none" fill-rule="nonzero" transform="matrix(1.00714 0 0 1 430.5 212.894)"/><text fill="#000000" fill-opacity="1" font-family="Helvetica Neue,Helvetica Neue_MSFontService,sans-serif" font-style="normal" font-variant="normal" font-weight="400" font-stretch="normal" font-size="14" text-anchor="start" direction="ltr" writing-mode="lr-tb" unicode-bidi="normal" text-decoration="none" transform="matrix(0.999848 0.0173286 -0.0174524 0.992757 544.133 175)">11</text><path d="M0.992908-56.5957 15.2246-56.5957C19.0632-56.5957 22.1749-53.484 22.1749-49.6454L22.1749-35.7447C22.1749-31.9061 19.0632-28.7943 15.2246-28.7943L0.992908-28.7943C-2.84567-28.7943-5.95745-31.9061-5.95745-35.7447L-5.95745-49.6454C-5.95745-53.484-2.84567-56.5957 0.992908-56.5957Z" fill="#DEAD26" fill-rule="nonzero" fill-opacity="0.249251" transform="matrix(1.00714 0 0 1 430.5 212.894)"/><path d="M0.992908-56.5957 15.2246-56.5957C19.0632-56.5957 22.1749-53.484 22.1749-49.6454L22.1749-35.7447C22.1749-31.9061 19.0632-28.7943 15.2246-28.7943L0.992908-28.7943C-2.84567-28.7943-5.95745-31.9061-5.95745-35.7447L-5.95745-49.6454C-5.95745-53.484-2.84567-56.5957 0.992908-56.5957Z" stroke="#808080" stroke-width="0.992908" stroke-linecap="round" stroke-linejoin="round" stroke-miterlimit="4" stroke-opacity="1" fill="none" fill-rule="nonzero" transform="matrix(1.00714 0 0 1 430.5 212.894)"/><text fill="#000000" fill-opacity="1" font-family="Helvetica Neue,Helvetica Neue_MSFontService,sans-serif" font-style="normal" font-variant="normal" font-weight="400" font-stretch="normal" font-size="14" text-anchor="start" direction="ltr" writing-mode="lr-tb" unicode-bidi="normal" text-decoration="none" transform="matrix(0.999848 0.0173286 -0.0174524 0.992757 434.691 175)">7</text><path d="M22.1749 47.6596 22.1749 39.8126C22.1749 37.4741 23.3508 35.2924 25.3042 34.0068L32.42 29.3234C34.7388 27.7973 37.7434 27.7973 40.0623 29.3234L47.1781 34.0068C49.1314 35.2924 50.3073 37.4741 50.3073 39.8126L50.3073 47.6596C50.3073 51.4981 47.1956 54.6099 43.357 54.6099L29.1253 54.6099C25.2867 54.6099 22.1749 51.4981 22.1749 47.6596Z" fill="#7BCDF4" fill-rule="nonzero" fill-opacity="1" transform="matrix(1.00714 0 0 1 430.5 212.894)"/><path d="M22.1749 47.6596 22.1749 39.8126C22.1749 37.4741 23.3508 35.2924 25.3042 34.0068L32.42 29.3234C34.7388 27.7973 37.7434 27.7973 40.0623 29.3234L47.1781 34.0068C49.1314 35.2924 50.3073 37.4741 50.3073 39.8126L50.3073 47.6596C50.3073 51.4981 47.1956 54.6099 43.357 54.6099L29.1253 54.6099C25.2867 54.6099 22.1749 51.4981 22.1749 47.6596Z" stroke="#808080" stroke-width="0.992908" stroke-linecap="round" stroke-linejoin="round" stroke-miterlimit="4" stroke-opacity="1" fill="none" fill-rule="nonzero" transform="matrix(1.00714 0 0 1 430.5 212.894)"/><text fill="#000000" fill-opacity="1" font-family="Helvetica Neue,Helvetica Neue_MSFontService,sans-serif" font-style="normal" font-variant="normal" font-weight="400" font-stretch="normal" font-size="14" text-anchor="start" direction="ltr" writing-mode="lr-tb" unicode-bidi="normal" text-decoration="none" transform="matrix(0.999848 0.0173286 -0.0174524 0.992757 459.133 258)">26</text><path d="M162.837 12.9078C162.837 20.585 156.539 26.8085 148.771 26.8085 141.002 26.8085 134.704 20.585 134.704 12.9078 134.704 5.23064 141.002-0.992929 148.771-0.992929 156.539-0.992929 162.837 5.23064 162.837 12.9078Z" fill="#37A58A" fill-rule="nonzero" fill-opacity="1" transform="matrix(1.00714 0 0 1 430.5 212.894)"/><path d="M162.837 12.9078C162.837 20.585 156.539 26.8085 148.771 26.8085 141.002 26.8085 134.704 20.585 134.704 12.9078 134.704 5.23064 141.002-0.992929 148.771-0.992929 156.539-0.992929 162.837 5.23064 162.837 12.9078Z" stroke="#808080" stroke-width="0.992908" stroke-linecap="round" stroke-linejoin="round" stroke-miterlimit="4" stroke-opacity="1" fill="none" fill-rule="nonzero" transform="matrix(1.00714 0 0 1 430.5 212.894)"/><text fill="#FFFFFF" fill-opacity="1" font-family="Helvetica Neue,Helvetica Neue_MSFontService,sans-serif" font-style="normal" font-variant="normal" font-weight="400" font-stretch="normal" font-size="14" text-anchor="start" direction="ltr" writing-mode="lr-tb" unicode-bidi="normal" text-decoration="none" transform="matrix(0.999848 0.0173286 -0.0174524 0.992757 572.467 230)">24</text><path d="M78.4397-7.94326 78.4397-15.7903C78.4397-18.1287 79.6156-20.3104 81.5689-21.596L88.6848-26.2794C91.0036-27.8056 94.0082-27.8056 96.327-26.2794L103.443-21.596C105.396-20.3104 106.572-18.1287 106.572-15.7903L106.572-7.94326C106.572-4.10469 103.46-0.992908 99.6217-0.992908L85.3901-0.992908C81.5515-0.992908 78.4397-4.10469 78.4397-7.94326Z" fill="#7BCDF4" fill-rule="nonzero" fill-opacity="1" transform="matrix(1.00714 0 0 1 430.5 212.894)"/><path d="M78.4397-7.94326 78.4397-15.7903C78.4397-18.1287 79.6156-20.3104 81.5689-21.596L88.6848-26.2794C91.0036-27.8056 94.0082-27.8056 96.327-26.2794L103.443-21.596C105.396-20.3104 106.572-18.1287 106.572-15.7903L106.572-7.94326C106.572-4.10469 103.46-0.992908 99.6217-0.992908L85.3901-0.992908C81.5515-0.992908 78.4397-4.10469 78.4397-7.94326Z" stroke="#808080" stroke-width="0.992908" stroke-linecap="round" stroke-linejoin="round" stroke-miterlimit="4" stroke-opacity="1" fill="none" fill-rule="nonzero" transform="matrix(1.00714 0 0 1 430.5 212.894)"/><text fill="#000000" fill-opacity="1" font-family="Helvetica Neue,Helvetica Neue_MSFontService,sans-serif" font-style="normal" font-variant="normal" font-weight="400" font-stretch="normal" font-size="14" text-anchor="start" direction="ltr" writing-mode="lr-tb" unicode-bidi="normal" text-decoration="none" transform="matrix(0.999848 0.0173286 -0.0174524 0.992757 515.8 203)">16</text><path d="M50.3073-35.7447 50.3073-43.5917C50.3073-45.9301 51.4832-48.1118 53.4366-49.3974L60.5524-54.0808C62.8712-55.607 65.8758-55.607 68.1946-54.0808L75.3105-49.3974C77.2638-48.1118 78.4397-45.9301 78.4397-43.5917L78.4397-35.7447C78.4397-31.9061 75.3279-28.7943 71.4894-28.7943L57.2577-28.7943C53.4191-28.7943 50.3073-31.9061 50.3073-35.7447Z" fill="#7BCDF4" fill-rule="nonzero" fill-opacity="1" transform="matrix(1.00714 0 0 1 430.5 212.894)"/><path d="M50.3073-35.7447 50.3073-43.5917C50.3073-45.9301 51.4832-48.1118 53.4366-49.3974L60.5524-54.0808C62.8712-55.607 65.8758-55.607 68.1946-54.0808L75.3105-49.3974C77.2638-48.1118 78.4397-45.9301 78.4397-43.5917L78.4397-35.7447C78.4397-31.9061 75.3279-28.7943 71.4894-28.7943L57.2577-28.7943C53.4191-28.7943 50.3073-31.9061 50.3073-35.7447Z" stroke="#808080" stroke-width="0.992908" stroke-linecap="round" stroke-linejoin="round" stroke-miterlimit="4" stroke-opacity="1" fill="none" fill-rule="nonzero" transform="matrix(1.00714 0 0 1 430.5 212.894)"/><text fill="#000000" fill-opacity="1" font-family="Helvetica Neue,Helvetica Neue_MSFontService,sans-serif" font-style="normal" font-variant="normal" font-weight="400" font-stretch="normal" font-size="14" text-anchor="start" direction="ltr" writing-mode="lr-tb" unicode-bidi="normal" text-decoration="none" transform="matrix(0.999848 0.0173286 -0.0174524 0.992757 491.358 175)">9</text><path d="M85.3901-84.3972 99.6217-84.3972C103.46-84.3972 106.572-81.2854 106.572-77.4468L106.572-63.5461C106.572-59.7075 103.46-56.5957 99.6217-56.5957L85.3901-56.5957C81.5515-56.5957 78.4397-59.7075 78.4397-63.5461L78.4397-77.4468C78.4397-81.2854 81.5515-84.3972 85.3901-84.3972Z" fill="#DEAD26" fill-rule="nonzero" fill-opacity="0.249251" transform="matrix(1.00714 0 0 1 430.5 212.894)"/><path d="M85.3901-84.3972 99.6217-84.3972C103.46-84.3972 106.572-81.2854 106.572-77.4468L106.572-63.5461C106.572-59.7075 103.46-56.5957 99.6217-56.5957L85.3901-56.5957C81.5515-56.5957 78.4397-59.7075 78.4397-63.5461L78.4397-77.4468C78.4397-81.2854 81.5515-84.3972 85.3901-84.3972Z" stroke="#808080" stroke-width="0.992908" stroke-linecap="round" stroke-linejoin="round" stroke-miterlimit="4" stroke-opacity="1" fill="none" fill-rule="nonzero" transform="matrix(1.00714 0 0 1 430.5 212.894)"/><text fill="#000000" fill-opacity="1" font-family="Helvetica Neue,Helvetica Neue_MSFontService,sans-serif" font-style="normal" font-variant="normal" font-weight="400" font-stretch="normal" font-size="14" text-anchor="start" direction="ltr" writing-mode="lr-tb" unicode-bidi="normal" text-decoration="none" transform="matrix(0.999848 0.0173286 -0.0174524 0.992757 519.691 147)">4</text><path d="M106.572 47.6596 106.572 39.8126C106.572 37.4741 107.748 35.2924 109.701 34.0068L116.817 29.3234C119.136 27.7973 122.141 27.7973 124.459 29.3234L131.575 34.0068C133.529 35.2924 134.704 37.4741 134.704 39.8126L134.704 47.6596C134.704 51.4981 131.593 54.6099 127.754 54.6099L113.522 54.6099C109.684 54.6099 106.572 51.4981 106.572 47.6596Z" fill="#7BCDF4" fill-rule="nonzero" fill-opacity="1" transform="matrix(1.00714 0 0 1 430.5 212.894)"/><path d="M106.572 47.6596 106.572 39.8126C106.572 37.4741 107.748 35.2924 109.701 34.0068L116.817 29.3234C119.136 27.7973 122.141 27.7973 124.459 29.3234L131.575 34.0068C133.529 35.2924 134.704 37.4741 134.704 39.8126L134.704 47.6596C134.704 51.4981 131.593 54.6099 127.754 54.6099L113.522 54.6099C109.684 54.6099 106.572 51.4981 106.572 47.6596Z" stroke="#808080" stroke-width="0.992908" stroke-linecap="round" stroke-linejoin="round" stroke-miterlimit="4" stroke-opacity="1" fill="none" fill-rule="nonzero" transform="matrix(1.00714 0 0 1 430.5 212.894)"/><text fill="#000000" fill-opacity="1" font-family="Helvetica Neue,Helvetica Neue_MSFontService,sans-serif" font-style="normal" font-variant="normal" font-weight="400" font-stretch="normal" font-size="14" text-anchor="start" direction="ltr" writing-mode="lr-tb" unicode-bidi="normal" text-decoration="none" transform="matrix(0.999848 0.0173286 -0.0174524 0.992757 544.133 258)">29</text><path d="M22.1749 19.8582 22.1749 12.0111C22.1749 9.67271 23.3508 7.49102 25.3042 6.20541L32.42 1.52202C34.7388-0.00415178 37.7434-0.00415178 40.0623 1.52202L47.1781 6.20541C49.1314 7.49102 50.3073 9.67271 50.3073 12.0111L50.3073 19.8582C50.3073 23.6967 47.1956 26.8085 43.357 26.8085L29.1253 26.8085C25.2867 26.8085 22.1749 23.6967 22.1749 19.8582Z" fill="#7BCDF4" fill-rule="nonzero" fill-opacity="1" transform="matrix(1.00714 0 0 1 430.5 212.894)"/><path d="M22.1749 19.8582 22.1749 12.0111C22.1749 9.67271 23.3508 7.49102 25.3042 6.20541L32.42 1.52202C34.7388-0.00415178 37.7434-0.00415178 40.0623 1.52202L47.1781 6.20541C49.1314 7.49102 50.3073 9.67271 50.3073 12.0111L50.3073 19.8582C50.3073 23.6967 47.1956 26.8085 43.357 26.8085L29.1253 26.8085C25.2867 26.8085 22.1749 23.6967 22.1749 19.8582Z" stroke="#808080" stroke-width="0.992908" stroke-linecap="round" stroke-linejoin="round" stroke-miterlimit="4" stroke-opacity="1" fill="none" fill-rule="nonzero" transform="matrix(1.00714 0 0 1 430.5 212.894)"/><text fill="#000000" fill-opacity="1" font-family="Helvetica Neue,Helvetica Neue_MSFontService,sans-serif" font-style="normal" font-variant="normal" font-weight="400" font-stretch="normal" font-size="14" text-anchor="start" direction="ltr" writing-mode="lr-tb" unicode-bidi="normal" text-decoration="none" transform="matrix(0.999848 0.0173286 -0.0174524 0.992757 459.133 230)">20</text><path d="M162.837-42.695C162.837-35.0179 156.539-28.7943 148.771-28.7943 141.002-28.7943 134.704-35.0179 134.704-42.695 134.704-50.3722 141.002-56.5958 148.771-56.5958 156.539-56.5958 162.837-50.3722 162.837-42.695Z" fill="#37A58A" fill-rule="nonzero" fill-opacity="1" transform="matrix(1.00714 0 0 1 430.5 212.894)"/><path d="M162.837-42.695C162.837-35.0179 156.539-28.7943 148.771-28.7943 141.002-28.7943 134.704-35.0179 134.704-42.695 134.704-50.3722 141.002-56.5958 148.771-56.5958 156.539-56.5958 162.837-50.3722 162.837-42.695Z" stroke="#808080" stroke-width="0.992908" stroke-linecap="round" stroke-linejoin="round" stroke-miterlimit="4" stroke-opacity="1" fill="none" fill-rule="nonzero" transform="matrix(1.00714 0 0 1 430.5 212.894)"/><text fill="#FFFFFF" fill-opacity="1" font-family="Helvetica Neue,Helvetica Neue_MSFontService,sans-serif" font-style="normal" font-variant="normal" font-weight="400" font-stretch="normal" font-size="14" text-anchor="start" direction="ltr" writing-mode="lr-tb" unicode-bidi="normal" text-decoration="none" transform="matrix(0.999848 0.0173286 -0.0174524 0.992757 572.467 175)">12</text><path d="M-5.95745-7.94326-5.95745-15.7903C-5.95745-18.1287-4.78154-20.3104-2.82822-21.596L4.28762-26.2794C6.60645-27.8056 9.61104-27.8056 11.9299-26.2794L19.0457-21.596C20.999-20.3104 22.1749-18.1287 22.1749-15.7903L22.1749-7.94326C22.1749-4.10469 19.0632-0.992908 15.2246-0.992908L0.992908-0.992908C-2.84567-0.992908-5.95745-4.10469-5.95745-7.94326Z" fill="#7BCDF4" fill-rule="nonzero" fill-opacity="1" transform="matrix(1.00714 0 0 1 430.5 212.894)"/><path d="M-5.95745-7.94326-5.95745-15.7903C-5.95745-18.1287-4.78154-20.3104-2.82822-21.596L4.28762-26.2794C6.60645-27.8056 9.61104-27.8056 11.9299-26.2794L19.0457-21.596C20.999-20.3104 22.1749-18.1287 22.1749-15.7903L22.1749-7.94326C22.1749-4.10469 19.0632-0.992908 15.2246-0.992908L0.992908-0.992908C-2.84567-0.992908-5.95745-4.10469-5.95745-7.94326Z" stroke="#808080" stroke-width="0.992908" stroke-linecap="round" stroke-linejoin="round" stroke-miterlimit="4" stroke-opacity="1" fill="none" fill-rule="nonzero" transform="matrix(1.00714 0 0 1 430.5 212.894)"/><text fill="#000000" fill-opacity="1" font-family="Helvetica Neue,Helvetica Neue_MSFontService,sans-serif" font-style="normal" font-variant="normal" font-weight="400" font-stretch="normal" font-size="14" text-anchor="start" direction="ltr" writing-mode="lr-tb" unicode-bidi="normal" text-decoration="none" transform="matrix(0.999848 0.0173286 -0.0174524 0.992757 430.8 203)">13</text><path d="M78.4397-14.8936C78.4397-7.21645 72.1421-0.992886 64.3735-0.992886 56.605-0.992886 50.3073-7.21645 50.3073-14.8936 50.3073-22.5708 56.605-28.7943 64.3735-28.7943 72.1421-28.7943 78.4397-22.5708 78.4397-14.8936Z" fill="#37A58A" fill-rule="nonzero" fill-opacity="1" transform="matrix(1.00714 0 0 1 430.5 212.894)"/><path d="M78.4397-14.8936C78.4397-7.21645 72.1421-0.992886 64.3735-0.992886 56.605-0.992886 50.3073-7.21645 50.3073-14.8936 50.3073-22.5708 56.605-28.7943 64.3735-28.7943 72.1421-28.7943 78.4397-22.5708 78.4397-14.8936Z" stroke="#808080" stroke-width="0.992908" stroke-linecap="round" stroke-linejoin="round" stroke-miterlimit="4" stroke-opacity="1" fill="none" fill-rule="nonzero" transform="matrix(1.00714 0 0 1 430.5 212.894)"/><text fill="#FFFFFF" fill-opacity="1" font-family="Helvetica Neue,Helvetica Neue_MSFontService,sans-serif" font-style="normal" font-variant="normal" font-weight="400" font-stretch="normal" font-size="14" text-anchor="start" direction="ltr" writing-mode="lr-tb" unicode-bidi="normal" text-decoration="none" transform="matrix(0.999848 0.0173286 -0.0174524 0.992757 487.467 203)">15</text><path d="M106.572-63.5461 106.572-71.3931C106.572-73.7316 107.748-75.9132 109.701-77.1988L116.817-81.8822C119.136-83.4084 122.141-83.4084 124.459-81.8822L131.575-77.1988C133.529-75.9132 134.704-73.7316 134.704-71.3931L134.704-63.5461C134.704-59.7075 131.593-56.5957 127.754-56.5957L113.522-56.5957C109.684-56.5957 106.572-59.7075 106.572-63.5461Z" fill="#7BCDF4" fill-rule="nonzero" fill-opacity="1" transform="matrix(1.00714 0 0 1 430.5 212.894)"/><path d="M106.572-63.5461 106.572-71.3931C106.572-73.7316 107.748-75.9132 109.701-77.1988L116.817-81.8822C119.136-83.4084 122.141-83.4084 124.459-81.8822L131.575-77.1988C133.529-75.9132 134.704-73.7316 134.704-71.3931L134.704-63.5461C134.704-59.7075 131.593-56.5957 127.754-56.5957L113.522-56.5957C109.684-56.5957 106.572-59.7075 106.572-63.5461Z" stroke="#808080" stroke-width="0.992908" stroke-linecap="round" stroke-linejoin="round" stroke-miterlimit="4" stroke-opacity="1" fill="none" fill-rule="nonzero" transform="matrix(1.00714 0 0 1 430.5 212.894)"/><text fill="#000000" fill-opacity="1" font-family="Helvetica Neue,Helvetica Neue_MSFontService,sans-serif" font-style="normal" font-variant="normal" font-weight="400" font-stretch="normal" font-size="14" text-anchor="start" direction="ltr" writing-mode="lr-tb" unicode-bidi="normal" text-decoration="none" transform="matrix(0.999848 0.0173286 -0.0174524 0.992757 548.025 147)">5</text><path d="M85.3901-56.5957 99.6217-56.5957C103.46-56.5957 106.572-53.484 106.572-49.6454L106.572-35.7447C106.572-31.9061 103.46-28.7943 99.6217-28.7943L85.3901-28.7943C81.5515-28.7943 78.4397-31.9061 78.4397-35.7447L78.4397-49.6454C78.4397-53.484 81.5515-56.5957 85.3901-56.5957Z" fill="#DEAD26" fill-rule="nonzero" fill-opacity="0.249251" transform="matrix(1.00714 0 0 1 430.5 212.894)"/><path d="M85.3901-56.5957 99.6217-56.5957C103.46-56.5957 106.572-53.484 106.572-49.6454L106.572-35.7447C106.572-31.9061 103.46-28.7943 99.6217-28.7943L85.3901-28.7943C81.5515-28.7943 78.4397-31.9061 78.4397-35.7447L78.4397-49.6454C78.4397-53.484 81.5515-56.5957 85.3901-56.5957Z" stroke="#808080" stroke-width="0.992908" stroke-linecap="round" stroke-linejoin="round" stroke-miterlimit="4" stroke-opacity="1" fill="none" fill-rule="nonzero" transform="matrix(1.00714 0 0 1 430.5 212.894)"/><text fill="#000000" fill-opacity="1" font-family="Helvetica Neue,Helvetica Neue_MSFontService,sans-serif" font-style="normal" font-variant="normal" font-weight="400" font-stretch="normal" font-size="14" text-anchor="start" direction="ltr" writing-mode="lr-tb" unicode-bidi="normal" text-decoration="none" transform="matrix(0.999848 0.0173286 -0.0174524 0.992757 515.8 175)">10</text><path d="M-82.4113-15.8865-32.5674-15.8865" stroke="#000000" stroke-width="1.29078" stroke-linecap="round" stroke-linejoin="round" stroke-miterlimit="4" stroke-opacity="1" fill="none" fill-rule="nonzero" transform="matrix(1.00714 0 0 1 430.5 212.894)"/><path d="M8.41986 0 0-3.15745 0 3.15745Z" stroke="#000000" stroke-width="1.29078" stroke-linecap="butt" stroke-linejoin="miter" stroke-miterlimit="10" stroke-opacity="1" fill="#000000" fill-rule="nonzero" fill-opacity="1" transform="matrix(1.00714 0 0 1 397.7 197.007)"/></g></g></g></g></svg>